# https://github.com/mikedh/trimesh
v 60.00000000 230.00000000 0.00000000
v 60.00000000 70.00000000 0.00000000
v 170.00000000 70.00000000 0.00000000
v 60.00000000 230.00000000 15.00000000
v 60.00000000 70.00000000 15.00000000
v 170.00000000 70.00000000 15.00000000
v 170.00000000 230.00000000 0.00000000
v 170.00000000 230.00000000 15.00000000
v 250.00000000 230.00000000 0.00000000
v 250.00000000 70.00000000 0.00000000
v 360.00000000 70.00000000 0.00000000
v 250.00000000 230.00000000 18.00000000
v 250.00000000 70.00000000 18.00000000
v 360.00000000 70.00000000 18.00000000
v 360.00000000 230.00000000 0.00000000
v 360.00000000 230.00000000 18.00000000
v 440.00000000 230.00000000 0.00000000
v 440.00000000 70.00000000 0.00000000
v 550.00000000 70.00000000 0.00000000
v 440.00000000 230.00000000 21.00000000
v 440.00000000 70.00000000 21.00000000
v 550.00000000 70.00000000 21.00000000
v 550.00000000 230.00000000 0.00000000
v 550.00000000 230.00000000 21.00000000
f 1 3 2
f 4 5 6
f 1 7 3
f 4 6 8
f 2 3 6
f 2 6 5
f 3 7 8
f 3 8 6
f 7 1 4
f 7 4 8
f 1 2 5
f 1 5 4
f 9 11 10
f 12 13 14
f 9 15 11
f 12 14 16
f 10 11 14
f 10 14 13
f 11 15 16
f 11 16 14
f 15 9 12
f 15 12 16
f 9 10 13
f 9 13 12
f 17 19 18
f 20 21 22
f 17 23 19
f 20 22 24
f 18 19 22
f 18 22 21
f 19 23 24
f 19 24 22
f 23 17 20
f 23 20 24
f 17 18 21
f 17 21 20

