# https://github.com/mikedh/trimesh
v 60.00000000 230.00000000 0.00000000
v 60.00000000 70.00000000 0.00000000
v 170.00000000 70.00000000 0.00000000
v 60.00000000 230.00000000 3.00000000
v 60.00000000 70.00000000 3.00000000
v 170.00000000 70.00000000 3.00000000
v 170.00000000 230.00000000 0.00000000
v 170.00000000 230.00000000 3.00000000
v 60.00000000 230.00000000 3.00000000
v 60.00000000 70.00000000 3.00000000
v 170.00000000 70.00000000 3.00000000
v 60.00000000 230.00000000 6.00000000
v 60.00000000 70.00000000 6.00000000
v 170.00000000 70.00000000 6.00000000
v 170.00000000 230.00000000 3.00000000
v 170.00000000 230.00000000 6.00000000
v 60.00000000 230.00000000 6.00000000
v 60.00000000 70.00000000 6.00000000
v 170.00000000 70.00000000 6.00000000
v 60.00000000 230.00000000 9.00000000
v 60.00000000 70.00000000 9.00000000
v 170.00000000 70.00000000 9.00000000
v 170.00000000 230.00000000 6.00000000
v 170.00000000 230.00000000 9.00000000
v 60.00000000 230.00000000 9.00000000
v 60.00000000 70.00000000 9.00000000
v 170.00000000 70.00000000 9.00000000
v 60.00000000 230.00000000 12.00000000
v 60.00000000 70.00000000 12.00000000
v 170.00000000 70.00000000 12.00000000
v 170.00000000 230.00000000 9.00000000
v 170.00000000 230.00000000 12.00000000
v 60.00000000 230.00000000 12.00000000
v 60.00000000 70.00000000 12.00000000
v 170.00000000 70.00000000 12.00000000
v 60.00000000 230.00000000 15.00000000
v 60.00000000 70.00000000 15.00000000
v 170.00000000 70.00000000 15.00000000
v 170.00000000 230.00000000 12.00000000
v 170.00000000 230.00000000 15.00000000
v 250.00000000 230.00000000 -3.00000000
v 250.00000000 70.00000000 -3.00000000
v 360.00000000 70.00000000 -3.00000000
v 250.00000000 230.00000000 0.00000000
v 250.00000000 70.00000000 0.00000000
v 360.00000000 70.00000000 0.00000000
v 360.00000000 230.00000000 -3.00000000
v 360.00000000 230.00000000 0.00000000
v 250.00000000 230.00000000 0.00000000
v 250.00000000 70.00000000 0.00000000
v 360.00000000 70.00000000 0.00000000
v 250.00000000 230.00000000 3.60000000
v 250.00000000 70.00000000 3.60000000
v 360.00000000 70.00000000 3.60000000
v 360.00000000 230.00000000 0.00000000
v 360.00000000 230.00000000 3.60000000
v 250.00000000 230.00000000 3.60000000
v 250.00000000 70.00000000 3.60000000
v 360.00000000 70.00000000 3.60000000
v 250.00000000 230.00000000 7.20000000
v 250.00000000 70.00000000 7.20000000
v 360.00000000 70.00000000 7.20000000
v 360.00000000 230.00000000 3.60000000
v 360.00000000 230.00000000 7.20000000
v 250.00000000 230.00000000 7.20000000
v 250.00000000 70.00000000 7.20000000
v 360.00000000 70.00000000 7.20000000
v 250.00000000 230.00000000 10.80000000
v 250.00000000 70.00000000 10.80000000
v 360.00000000 70.00000000 10.80000000
v 360.00000000 230.00000000 7.20000000
v 360.00000000 230.00000000 10.80000000
v 250.00000000 230.00000000 10.80000000
v 250.00000000 70.00000000 10.80000000
v 360.00000000 70.00000000 10.80000000
v 250.00000000 230.00000000 14.40000000
v 250.00000000 70.00000000 14.40000000
v 360.00000000 70.00000000 14.40000000
v 360.00000000 230.00000000 10.80000000
v 360.00000000 230.00000000 14.40000000
v 250.00000000 230.00000000 14.40000000
v 250.00000000 70.00000000 14.40000000
v 360.00000000 70.00000000 14.40000000
v 250.00000000 230.00000000 18.00000000
v 250.00000000 70.00000000 18.00000000
v 360.00000000 70.00000000 18.00000000
v 360.00000000 230.00000000 14.40000000
v 360.00000000 230.00000000 18.00000000
v 440.00000000 230.00000000 0.00000000
v 440.00000000 70.00000000 0.00000000
v 550.00000000 70.00000000 0.00000000
v 440.00000000 230.00000000 4.20000000
v 440.00000000 70.00000000 4.20000000
v 550.00000000 70.00000000 4.20000000
v 550.00000000 230.00000000 0.00000000
v 550.00000000 230.00000000 4.20000000
v 440.00000000 230.00000000 4.20000000
v 440.00000000 70.00000000 4.20000000
v 550.00000000 70.00000000 4.20000000
v 440.00000000 230.00000000 8.40000000
v 440.00000000 70.00000000 8.40000000
v 550.00000000 70.00000000 8.40000000
v 550.00000000 230.00000000 4.20000000
v 550.00000000 230.00000000 8.40000000
v 440.00000000 230.00000000 8.40000000
v 440.00000000 70.00000000 8.40000000
v 550.00000000 70.00000000 8.40000000
v 440.00000000 230.00000000 12.60000000
v 440.00000000 70.00000000 12.60000000
v 550.00000000 70.00000000 12.60000000
v 550.00000000 230.00000000 8.40000000
v 550.00000000 230.00000000 12.60000000
v 440.00000000 230.00000000 12.60000000
v 440.00000000 70.00000000 12.60000000
v 550.00000000 70.00000000 12.60000000
v 440.00000000 230.00000000 16.80000000
v 440.00000000 70.00000000 16.80000000
v 550.00000000 70.00000000 16.80000000
v 550.00000000 230.00000000 12.60000000
v 550.00000000 230.00000000 16.80000000
v 440.00000000 230.00000000 16.80000000
v 440.00000000 70.00000000 16.80000000
v 550.00000000 70.00000000 16.80000000
v 440.00000000 230.00000000 21.00000000
v 440.00000000 70.00000000 21.00000000
v 550.00000000 70.00000000 21.00000000
v 550.00000000 230.00000000 16.80000000
v 550.00000000 230.00000000 21.00000000
f 1 3 2
f 4 5 6
f 1 7 3
f 4 6 8
f 2 3 6
f 2 6 5
f 3 7 8
f 3 8 6
f 7 1 4
f 7 4 8
f 1 2 5
f 1 5 4
f 9 11 10
f 12 13 14
f 9 15 11
f 12 14 16
f 10 11 14
f 10 14 13
f 11 15 16
f 11 16 14
f 15 9 12
f 15 12 16
f 9 10 13
f 9 13 12
f 17 19 18
f 20 21 22
f 17 23 19
f 20 22 24
f 18 19 22
f 18 22 21
f 19 23 24
f 19 24 22
f 23 17 20
f 23 20 24
f 17 18 21
f 17 21 20
f 25 27 26
f 28 29 30
f 25 31 27
f 28 30 32
f 26 27 30
f 26 30 29
f 27 31 32
f 27 32 30
f 31 25 28
f 31 28 32
f 25 26 29
f 25 29 28
f 33 35 34
f 36 37 38
f 33 39 35
f 36 38 40
f 34 35 38
f 34 38 37
f 35 39 40
f 35 40 38
f 39 33 36
f 39 36 40
f 33 34 37
f 33 37 36
f 41 43 42
f 44 45 46
f 41 47 43
f 44 46 48
f 42 43 46
f 42 46 45
f 43 47 48
f 43 48 46
f 47 41 44
f 47 44 48
f 41 42 45
f 41 45 44
f 49 51 50
f 52 53 54
f 49 55 51
f 52 54 56
f 50 51 54
f 50 54 53
f 51 55 56
f 51 56 54
f 55 49 52
f 55 52 56
f 49 50 53
f 49 53 52
f 57 59 58
f 60 61 62
f 57 63 59
f 60 62 64
f 58 59 62
f 58 62 61
f 59 63 64
f 59 64 62
f 63 57 60
f 63 60 64
f 57 58 61
f 57 61 60
f 65 67 66
f 68 69 70
f 65 71 67
f 68 70 72
f 66 67 70
f 66 70 69
f 67 71 72
f 67 72 70
f 71 65 68
f 71 68 72
f 65 66 69
f 65 69 68
f 73 75 74
f 76 77 78
f 73 79 75
f 76 78 80
f 74 75 78
f 74 78 77
f 75 79 80
f 75 80 78
f 79 73 76
f 79 76 80
f 73 74 77
f 73 77 76
f 81 83 82
f 84 85 86
f 81 87 83
f 84 86 88
f 82 83 86
f 82 86 85
f 83 87 88
f 83 88 86
f 87 81 84
f 87 84 88
f 81 82 85
f 81 85 84
f 89 91 90
f 92 93 94
f 89 95 91
f 92 94 96
f 90 91 94
f 90 94 93
f 91 95 96
f 91 96 94
f 95 89 92
f 95 92 96
f 89 90 93
f 89 93 92
f 97 99 98
f 100 101 102
f 97 103 99
f 100 102 104
f 98 99 102
f 98 102 101
f 99 103 104
f 99 104 102
f 103 97 100
f 103 100 104
f 97 98 101
f 97 101 100
f 105 107 106
f 108 109 110
f 105 111 107
f 108 110 112
f 106 107 110
f 106 110 109
f 107 111 112
f 107 112 110
f 111 105 108
f 111 108 112
f 105 106 109
f 105 109 108
f 113 115 114
f 116 117 118
f 113 119 115
f 116 118 120
f 114 115 118
f 114 118 117
f 115 119 120
f 115 120 118
f 119 113 116
f 119 116 120
f 113 114 117
f 113 117 116
f 121 123 122
f 124 125 126
f 121 127 123
f 124 126 128
f 122 123 126
f 122 126 125
f 123 127 128
f 123 128 126
f 127 121 124
f 127 124 128
f 121 122 125
f 121 125 124

