# https://github.com/mikedh/trimesh
v 60.00000000 70.00000000 0.00000000
v 60.00000000 230.00000000 0.00000000
v 104.00000000 230.00000000 0.00000000
v 104.00000000 70.00000000 0.00000000
v 60.00000000 70.00000000 3.00000000
v 60.00000000 230.00000000 3.00000000
v 104.00000000 230.00000000 3.00000000
v 104.00000000 70.00000000 3.00000000
v 170.00000000 230.00000000 0.00000000
v 170.00000000 150.00000000 0.00000000
v 104.00000000 150.00000000 0.00000000
v 104.00000000 230.00000000 0.00000000
v 170.00000000 230.00000000 3.00000000
v 170.00000000 150.00000000 3.00000000
v 104.00000000 150.00000000 3.00000000
v 104.00000000 230.00000000 3.00000000
v 170.00000000 70.00000000 0.00000000
v 104.00000000 70.00000000 0.00000000
v 104.00000000 150.00000000 0.00000000
v 170.00000000 150.00000000 0.00000000
v 170.00000000 70.00000000 3.00000000
v 104.00000000 70.00000000 3.00000000
v 104.00000000 150.00000000 3.00000000
v 170.00000000 150.00000000 3.00000000
v 60.00000000 70.00000000 3.00000000
v 60.00000000 230.00000000 3.00000000
v 104.00000000 230.00000000 3.00000000
v 104.00000000 70.00000000 3.00000000
v 60.00000000 70.00000000 6.00000000
v 60.00000000 230.00000000 6.00000000
v 104.00000000 230.00000000 6.00000000
v 104.00000000 70.00000000 6.00000000
v 170.00000000 230.00000000 3.00000000
v 170.00000000 150.00000000 3.00000000
v 104.00000000 150.00000000 3.00000000
v 104.00000000 230.00000000 3.00000000
v 170.00000000 230.00000000 6.00000000
v 170.00000000 150.00000000 6.00000000
v 104.00000000 150.00000000 6.00000000
v 104.00000000 230.00000000 6.00000000
v 170.00000000 70.00000000 3.00000000
v 104.00000000 70.00000000 3.00000000
v 104.00000000 150.00000000 3.00000000
v 170.00000000 150.00000000 3.00000000
v 170.00000000 70.00000000 6.00000000
v 104.00000000 70.00000000 6.00000000
v 104.00000000 150.00000000 6.00000000
v 170.00000000 150.00000000 6.00000000
v 60.00000000 70.00000000 6.00000000
v 60.00000000 230.00000000 6.00000000
v 104.00000000 230.00000000 6.00000000
v 104.00000000 70.00000000 6.00000000
v 60.00000000 70.00000000 9.00000000
v 60.00000000 230.00000000 9.00000000
v 104.00000000 230.00000000 9.00000000
v 104.00000000 70.00000000 9.00000000
v 170.00000000 230.00000000 6.00000000
v 170.00000000 150.00000000 6.00000000
v 104.00000000 150.00000000 6.00000000
v 104.00000000 230.00000000 6.00000000
v 170.00000000 230.00000000 9.00000000
v 170.00000000 150.00000000 9.00000000
v 104.00000000 150.00000000 9.00000000
v 104.00000000 230.00000000 9.00000000
v 170.00000000 70.00000000 6.00000000
v 104.00000000 70.00000000 6.00000000
v 104.00000000 150.00000000 6.00000000
v 170.00000000 150.00000000 6.00000000
v 170.00000000 70.00000000 9.00000000
v 104.00000000 70.00000000 9.00000000
v 104.00000000 150.00000000 9.00000000
v 170.00000000 150.00000000 9.00000000
v 60.00000000 70.00000000 9.00000000
v 60.00000000 230.00000000 9.00000000
v 104.00000000 230.00000000 9.00000000
v 104.00000000 70.00000000 9.00000000
v 60.00000000 70.00000000 12.00000000
v 60.00000000 230.00000000 12.00000000
v 104.00000000 230.00000000 12.00000000
v 104.00000000 70.00000000 12.00000000
v 170.00000000 230.00000000 9.00000000
v 170.00000000 150.00000000 9.00000000
v 104.00000000 150.00000000 9.00000000
v 104.00000000 230.00000000 9.00000000
v 170.00000000 230.00000000 12.00000000
v 170.00000000 150.00000000 12.00000000
v 104.00000000 150.00000000 12.00000000
v 104.00000000 230.00000000 12.00000000
v 170.00000000 70.00000000 9.00000000
v 104.00000000 70.00000000 9.00000000
v 104.00000000 150.00000000 9.00000000
v 170.00000000 150.00000000 9.00000000
v 170.00000000 70.00000000 12.00000000
v 104.00000000 70.00000000 12.00000000
v 104.00000000 150.00000000 12.00000000
v 170.00000000 150.00000000 12.00000000
v 60.00000000 70.00000000 12.00000000
v 60.00000000 230.00000000 12.00000000
v 104.00000000 230.00000000 12.00000000
v 104.00000000 70.00000000 12.00000000
v 60.00000000 70.00000000 15.00000000
v 60.00000000 230.00000000 15.00000000
v 104.00000000 230.00000000 15.00000000
v 104.00000000 70.00000000 15.00000000
v 170.00000000 230.00000000 12.00000000
v 170.00000000 150.00000000 12.00000000
v 104.00000000 150.00000000 12.00000000
v 104.00000000 230.00000000 12.00000000
v 170.00000000 230.00000000 15.00000000
v 170.00000000 150.00000000 15.00000000
v 104.00000000 150.00000000 15.00000000
v 104.00000000 230.00000000 15.00000000
v 170.00000000 70.00000000 12.00000000
v 104.00000000 70.00000000 12.00000000
v 104.00000000 150.00000000 12.00000000
v 170.00000000 150.00000000 12.00000000
v 170.00000000 70.00000000 15.00000000
v 104.00000000 70.00000000 15.00000000
v 104.00000000 150.00000000 15.00000000
v 170.00000000 150.00000000 15.00000000
v 250.00000000 70.00000000 0.00000000
v 250.00000000 230.00000000 0.00000000
v 294.00000000 230.00000000 0.00000000
v 294.00000000 70.00000000 0.00000000
v 250.00000000 70.00000000 3.60000000
v 250.00000000 230.00000000 3.60000000
v 294.00000000 230.00000000 3.60000000
v 294.00000000 70.00000000 3.60000000
v 360.00000000 230.00000000 0.00000000
v 360.00000000 150.00000000 0.00000000
v 294.00000000 150.00000000 0.00000000
v 294.00000000 230.00000000 0.00000000
v 360.00000000 230.00000000 3.60000000
v 360.00000000 150.00000000 3.60000000
v 294.00000000 150.00000000 3.60000000
v 294.00000000 230.00000000 3.60000000
v 360.00000000 70.00000000 0.00000000
v 294.00000000 70.00000000 0.00000000
v 294.00000000 150.00000000 0.00000000
v 360.00000000 150.00000000 0.00000000
v 360.00000000 70.00000000 3.60000000
v 294.00000000 70.00000000 3.60000000
v 294.00000000 150.00000000 3.60000000
v 360.00000000 150.00000000 3.60000000
v 250.00000000 70.00000000 3.60000000
v 250.00000000 230.00000000 3.60000000
v 294.00000000 230.00000000 3.60000000
v 294.00000000 70.00000000 3.60000000
v 250.00000000 70.00000000 7.20000000
v 250.00000000 230.00000000 7.20000000
v 294.00000000 230.00000000 7.20000000
v 294.00000000 70.00000000 7.20000000
v 360.00000000 230.00000000 3.60000000
v 360.00000000 150.00000000 3.60000000
v 294.00000000 150.00000000 3.60000000
v 294.00000000 230.00000000 3.60000000
v 360.00000000 230.00000000 7.20000000
v 360.00000000 150.00000000 7.20000000
v 294.00000000 150.00000000 7.20000000
v 294.00000000 230.00000000 7.20000000
v 360.00000000 70.00000000 3.60000000
v 294.00000000 70.00000000 3.60000000
v 294.00000000 150.00000000 3.60000000
v 360.00000000 150.00000000 3.60000000
v 360.00000000 70.00000000 7.20000000
v 294.00000000 70.00000000 7.20000000
v 294.00000000 150.00000000 7.20000000
v 360.00000000 150.00000000 7.20000000
v 250.00000000 70.00000000 7.20000000
v 250.00000000 230.00000000 7.20000000
v 294.00000000 230.00000000 7.20000000
v 294.00000000 70.00000000 7.20000000
v 250.00000000 70.00000000 10.80000000
v 250.00000000 230.00000000 10.80000000
v 294.00000000 230.00000000 10.80000000
v 294.00000000 70.00000000 10.80000000
v 360.00000000 230.00000000 7.20000000
v 360.00000000 150.00000000 7.20000000
v 294.00000000 150.00000000 7.20000000
v 294.00000000 230.00000000 7.20000000
v 360.00000000 230.00000000 10.80000000
v 360.00000000 150.00000000 10.80000000
v 294.00000000 150.00000000 10.80000000
v 294.00000000 230.00000000 10.80000000
v 360.00000000 70.00000000 7.20000000
v 294.00000000 70.00000000 7.20000000
v 294.00000000 150.00000000 7.20000000
v 360.00000000 150.00000000 7.20000000
v 360.00000000 70.00000000 10.80000000
v 294.00000000 70.00000000 10.80000000
v 294.00000000 150.00000000 10.80000000
v 360.00000000 150.00000000 10.80000000
v 250.00000000 70.00000000 10.80000000
v 250.00000000 230.00000000 10.80000000
v 294.00000000 230.00000000 10.80000000
v 294.00000000 70.00000000 10.80000000
v 250.00000000 70.00000000 14.40000000
v 250.00000000 230.00000000 14.40000000
v 294.00000000 230.00000000 14.40000000
v 294.00000000 70.00000000 14.40000000
v 360.00000000 230.00000000 10.80000000
v 360.00000000 150.00000000 10.80000000
v 294.00000000 150.00000000 10.80000000
v 294.00000000 230.00000000 10.80000000
v 360.00000000 230.00000000 14.40000000
v 360.00000000 150.00000000 14.40000000
v 294.00000000 150.00000000 14.40000000
v 294.00000000 230.00000000 14.40000000
v 360.00000000 70.00000000 10.80000000
v 294.00000000 70.00000000 10.80000000
v 294.00000000 150.00000000 10.80000000
v 360.00000000 150.00000000 10.80000000
v 360.00000000 70.00000000 14.40000000
v 294.00000000 70.00000000 14.40000000
v 294.00000000 150.00000000 14.40000000
v 360.00000000 150.00000000 14.40000000
v 250.00000000 70.00000000 14.40000000
v 250.00000000 230.00000000 14.40000000
v 294.00000000 230.00000000 14.40000000
v 294.00000000 70.00000000 14.40000000
v 250.00000000 70.00000000 18.00000000
v 250.00000000 230.00000000 18.00000000
v 294.00000000 230.00000000 18.00000000
v 294.00000000 70.00000000 18.00000000
v 360.00000000 230.00000000 14.40000000
v 360.00000000 150.00000000 14.40000000
v 294.00000000 150.00000000 14.40000000
v 294.00000000 230.00000000 14.40000000
v 360.00000000 230.00000000 18.00000000
v 360.00000000 150.00000000 18.00000000
v 294.00000000 150.00000000 18.00000000
v 294.00000000 230.00000000 18.00000000
v 360.00000000 70.00000000 14.40000000
v 294.00000000 70.00000000 14.40000000
v 294.00000000 150.00000000 14.40000000
v 360.00000000 150.00000000 14.40000000
v 360.00000000 70.00000000 18.00000000
v 294.00000000 70.00000000 18.00000000
v 294.00000000 150.00000000 18.00000000
v 360.00000000 150.00000000 18.00000000
v 440.00000000 70.00000000 0.00000000
v 440.00000000 230.00000000 0.00000000
v 484.00000000 230.00000000 0.00000000
v 484.00000000 70.00000000 0.00000000
v 440.00000000 70.00000000 4.20000000
v 440.00000000 230.00000000 4.20000000
v 484.00000000 230.00000000 4.20000000
v 484.00000000 70.00000000 4.20000000
v 550.00000000 230.00000000 0.00000000
v 550.00000000 150.00000000 0.00000000
v 484.00000000 150.00000000 0.00000000
v 484.00000000 230.00000000 0.00000000
v 550.00000000 230.00000000 4.20000000
v 550.00000000 150.00000000 4.20000000
v 484.00000000 150.00000000 4.20000000
v 484.00000000 230.00000000 4.20000000
v 550.00000000 70.00000000 0.00000000
v 484.00000000 70.00000000 0.00000000
v 484.00000000 150.00000000 0.00000000
v 550.00000000 150.00000000 0.00000000
v 550.00000000 70.00000000 4.20000000
v 484.00000000 70.00000000 4.20000000
v 484.00000000 150.00000000 4.20000000
v 550.00000000 150.00000000 4.20000000
v 440.00000000 70.00000000 4.20000000
v 440.00000000 230.00000000 4.20000000
v 484.00000000 230.00000000 4.20000000
v 484.00000000 70.00000000 4.20000000
v 440.00000000 70.00000000 8.40000000
v 440.00000000 230.00000000 8.40000000
v 484.00000000 230.00000000 8.40000000
v 484.00000000 70.00000000 8.40000000
v 550.00000000 230.00000000 4.20000000
v 550.00000000 150.00000000 4.20000000
v 484.00000000 150.00000000 4.20000000
v 484.00000000 230.00000000 4.20000000
v 550.00000000 230.00000000 8.40000000
v 550.00000000 150.00000000 8.40000000
v 484.00000000 150.00000000 8.40000000
v 484.00000000 230.00000000 8.40000000
v 550.00000000 70.00000000 4.20000000
v 484.00000000 70.00000000 4.20000000
v 484.00000000 150.00000000 4.20000000
v 550.00000000 150.00000000 4.20000000
v 550.00000000 70.00000000 8.40000000
v 484.00000000 70.00000000 8.40000000
v 484.00000000 150.00000000 8.40000000
v 550.00000000 150.00000000 8.40000000
v 440.00000000 70.00000000 8.40000000
v 440.00000000 230.00000000 8.40000000
v 484.00000000 230.00000000 8.40000000
v 484.00000000 70.00000000 8.40000000
v 440.00000000 70.00000000 12.60000000
v 440.00000000 230.00000000 12.60000000
v 484.00000000 230.00000000 12.60000000
v 484.00000000 70.00000000 12.60000000
v 550.00000000 230.00000000 8.40000000
v 550.00000000 150.00000000 8.40000000
v 484.00000000 150.00000000 8.40000000
v 484.00000000 230.00000000 8.40000000
v 550.00000000 230.00000000 12.60000000
v 550.00000000 150.00000000 12.60000000
v 484.00000000 150.00000000 12.60000000
v 484.00000000 230.00000000 12.60000000
v 550.00000000 70.00000000 8.40000000
v 484.00000000 70.00000000 8.40000000
v 484.00000000 150.00000000 8.40000000
v 550.00000000 150.00000000 8.40000000
v 550.00000000 70.00000000 12.60000000
v 484.00000000 70.00000000 12.60000000
v 484.00000000 150.00000000 12.60000000
v 550.00000000 150.00000000 12.60000000
v 440.00000000 70.00000000 12.60000000
v 440.00000000 230.00000000 12.60000000
v 484.00000000 230.00000000 12.60000000
v 484.00000000 70.00000000 12.60000000
v 440.00000000 70.00000000 16.80000000
v 440.00000000 230.00000000 16.80000000
v 484.00000000 230.00000000 16.80000000
v 484.00000000 70.00000000 16.80000000
v 550.00000000 230.00000000 12.60000000
v 550.00000000 150.00000000 12.60000000
v 484.00000000 150.00000000 12.60000000
v 484.00000000 230.00000000 12.60000000
v 550.00000000 230.00000000 16.80000000
v 550.00000000 150.00000000 16.80000000
v 484.00000000 150.00000000 16.80000000
v 484.00000000 230.00000000 16.80000000
v 550.00000000 70.00000000 12.60000000
v 484.00000000 70.00000000 12.60000000
v 484.00000000 150.00000000 12.60000000
v 550.00000000 150.00000000 12.60000000
v 550.00000000 70.00000000 16.80000000
v 484.00000000 70.00000000 16.80000000
v 484.00000000 150.00000000 16.80000000
v 550.00000000 150.00000000 16.80000000
v 440.00000000 70.00000000 16.80000000
v 440.00000000 230.00000000 16.80000000
v 484.00000000 230.00000000 16.80000000
v 484.00000000 70.00000000 16.80000000
v 440.00000000 70.00000000 21.00000000
v 440.00000000 230.00000000 21.00000000
v 484.00000000 230.00000000 21.00000000
v 484.00000000 70.00000000 21.00000000
v 550.00000000 230.00000000 16.80000000
v 550.00000000 150.00000000 16.80000000
v 484.00000000 150.00000000 16.80000000
v 484.00000000 230.00000000 16.80000000
v 550.00000000 230.00000000 21.00000000
v 550.00000000 150.00000000 21.00000000
v 484.00000000 150.00000000 21.00000000
v 484.00000000 230.00000000 21.00000000
v 550.00000000 70.00000000 16.80000000
v 484.00000000 70.00000000 16.80000000
v 484.00000000 150.00000000 16.80000000
v 550.00000000 150.00000000 16.80000000
v 550.00000000 70.00000000 21.00000000
v 484.00000000 70.00000000 21.00000000
v 484.00000000 150.00000000 21.00000000
v 550.00000000 150.00000000 21.00000000
f 3 4 1
f 1 2 3
f 5 8 7
f 7 6 5
f 5 6 1
f 1 6 2
f 6 7 2
f 2 7 3
f 8 5 4
f 4 5 1
f 7 8 3
f 3 8 4
f 11 12 9
f 9 10 11
f 13 16 15
f 15 14 13
f 13 14 9
f 9 14 10
f 14 15 10
f 10 15 11
f 16 13 12
f 12 13 9
f 15 16 11
f 11 16 12
f 19 20 17
f 17 18 19
f 21 24 23
f 23 22 21
f 21 22 17
f 17 22 18
f 22 23 18
f 18 23 19
f 24 21 20
f 20 21 17
f 23 24 19
f 19 24 20
f 27 28 25
f 25 26 27
f 29 32 31
f 31 30 29
f 29 30 25
f 25 30 26
f 30 31 26
f 26 31 27
f 32 29 28
f 28 29 25
f 31 32 27
f 27 32 28
f 35 36 33
f 33 34 35
f 37 40 39
f 39 38 37
f 37 38 33
f 33 38 34
f 38 39 34
f 34 39 35
f 40 37 36
f 36 37 33
f 39 40 35
f 35 40 36
f 43 44 41
f 41 42 43
f 45 48 47
f 47 46 45
f 45 46 41
f 41 46 42
f 46 47 42
f 42 47 43
f 48 45 44
f 44 45 41
f 47 48 43
f 43 48 44
f 51 52 49
f 49 50 51
f 53 56 55
f 55 54 53
f 53 54 49
f 49 54 50
f 54 55 50
f 50 55 51
f 56 53 52
f 52 53 49
f 55 56 51
f 51 56 52
f 59 60 57
f 57 58 59
f 61 64 63
f 63 62 61
f 61 62 57
f 57 62 58
f 62 63 58
f 58 63 59
f 64 61 60
f 60 61 57
f 63 64 59
f 59 64 60
f 67 68 65
f 65 66 67
f 69 72 71
f 71 70 69
f 69 70 65
f 65 70 66
f 70 71 66
f 66 71 67
f 72 69 68
f 68 69 65
f 71 72 67
f 67 72 68
f 75 76 73
f 73 74 75
f 77 80 79
f 79 78 77
f 77 78 73
f 73 78 74
f 78 79 74
f 74 79 75
f 80 77 76
f 76 77 73
f 79 80 75
f 75 80 76
f 83 84 81
f 81 82 83
f 85 88 87
f 87 86 85
f 85 86 81
f 81 86 82
f 86 87 82
f 82 87 83
f 88 85 84
f 84 85 81
f 87 88 83
f 83 88 84
f 91 92 89
f 89 90 91
f 93 96 95
f 95 94 93
f 93 94 89
f 89 94 90
f 94 95 90
f 90 95 91
f 96 93 92
f 92 93 89
f 95 96 91
f 91 96 92
f 99 100 97
f 97 98 99
f 101 104 103
f 103 102 101
f 101 102 97
f 97 102 98
f 102 103 98
f 98 103 99
f 104 101 100
f 100 101 97
f 103 104 99
f 99 104 100
f 107 108 105
f 105 106 107
f 109 112 111
f 111 110 109
f 109 110 105
f 105 110 106
f 110 111 106
f 106 111 107
f 112 109 108
f 108 109 105
f 111 112 107
f 107 112 108
f 115 116 113
f 113 114 115
f 117 120 119
f 119 118 117
f 117 118 113
f 113 118 114
f 118 119 114
f 114 119 115
f 120 117 116
f 116 117 113
f 119 120 115
f 115 120 116
f 123 124 121
f 121 122 123
f 125 128 127
f 127 126 125
f 125 126 121
f 121 126 122
f 126 127 122
f 122 127 123
f 128 125 124
f 124 125 121
f 127 128 123
f 123 128 124
f 131 132 129
f 129 130 131
f 133 136 135
f 135 134 133
f 133 134 129
f 129 134 130
f 134 135 130
f 130 135 131
f 136 133 132
f 132 133 129
f 135 136 131
f 131 136 132
f 139 140 137
f 137 138 139
f 141 144 143
f 143 142 141
f 141 142 137
f 137 142 138
f 142 143 138
f 138 143 139
f 144 141 140
f 140 141 137
f 143 144 139
f 139 144 140
f 147 148 145
f 145 146 147
f 149 152 151
f 151 150 149
f 149 150 145
f 145 150 146
f 150 151 146
f 146 151 147
f 152 149 148
f 148 149 145
f 151 152 147
f 147 152 148
f 155 156 153
f 153 154 155
f 157 160 159
f 159 158 157
f 157 158 153
f 153 158 154
f 158 159 154
f 154 159 155
f 160 157 156
f 156 157 153
f 159 160 155
f 155 160 156
f 163 164 161
f 161 162 163
f 165 168 167
f 167 166 165
f 165 166 161
f 161 166 162
f 166 167 162
f 162 167 163
f 168 165 164
f 164 165 161
f 167 168 163
f 163 168 164
f 171 172 169
f 169 170 171
f 173 176 175
f 175 174 173
f 173 174 169
f 169 174 170
f 174 175 170
f 170 175 171
f 176 173 172
f 172 173 169
f 175 176 171
f 171 176 172
f 179 180 177
f 177 178 179
f 181 184 183
f 183 182 181
f 181 182 177
f 177 182 178
f 182 183 178
f 178 183 179
f 184 181 180
f 180 181 177
f 183 184 179
f 179 184 180
f 187 188 185
f 185 186 187
f 189 192 191
f 191 190 189
f 189 190 185
f 185 190 186
f 190 191 186
f 186 191 187
f 192 189 188
f 188 189 185
f 191 192 187
f 187 192 188
f 195 196 193
f 193 194 195
f 197 200 199
f 199 198 197
f 197 198 193
f 193 198 194
f 198 199 194
f 194 199 195
f 200 197 196
f 196 197 193
f 199 200 195
f 195 200 196
f 203 204 201
f 201 202 203
f 205 208 207
f 207 206 205
f 205 206 201
f 201 206 202
f 206 207 202
f 202 207 203
f 208 205 204
f 204 205 201
f 207 208 203
f 203 208 204
f 211 212 209
f 209 210 211
f 213 216 215
f 215 214 213
f 213 214 209
f 209 214 210
f 214 215 210
f 210 215 211
f 216 213 212
f 212 213 209
f 215 216 211
f 211 216 212
f 219 220 217
f 217 218 219
f 221 224 223
f 223 222 221
f 221 222 217
f 217 222 218
f 222 223 218
f 218 223 219
f 224 221 220
f 220 221 217
f 223 224 219
f 219 224 220
f 227 228 225
f 225 226 227
f 229 232 231
f 231 230 229
f 229 230 225
f 225 230 226
f 230 231 226
f 226 231 227
f 232 229 228
f 228 229 225
f 231 232 227
f 227 232 228
f 235 236 233
f 233 234 235
f 237 240 239
f 239 238 237
f 237 238 233
f 233 238 234
f 238 239 234
f 234 239 235
f 240 237 236
f 236 237 233
f 239 240 235
f 235 240 236
f 243 244 241
f 241 242 243
f 245 248 247
f 247 246 245
f 245 246 241
f 241 246 242
f 246 247 242
f 242 247 243
f 248 245 244
f 244 245 241
f 247 248 243
f 243 248 244
f 251 252 249
f 249 250 251
f 253 256 255
f 255 254 253
f 253 254 249
f 249 254 250
f 254 255 250
f 250 255 251
f 256 253 252
f 252 253 249
f 255 256 251
f 251 256 252
f 259 260 257
f 257 258 259
f 261 264 263
f 263 262 261
f 261 262 257
f 257 262 258
f 262 263 258
f 258 263 259
f 264 261 260
f 260 261 257
f 263 264 259
f 259 264 260
f 267 268 265
f 265 266 267
f 269 272 271
f 271 270 269
f 269 270 265
f 265 270 266
f 270 271 266
f 266 271 267
f 272 269 268
f 268 269 265
f 271 272 267
f 267 272 268
f 275 276 273
f 273 274 275
f 277 280 279
f 279 278 277
f 277 278 273
f 273 278 274
f 278 279 274
f 274 279 275
f 280 277 276
f 276 277 273
f 279 280 275
f 275 280 276
f 283 284 281
f 281 282 283
f 285 288 287
f 287 286 285
f 285 286 281
f 281 286 282
f 286 287 282
f 282 287 283
f 288 285 284
f 284 285 281
f 287 288 283
f 283 288 284
f 291 292 289
f 289 290 291
f 293 296 295
f 295 294 293
f 293 294 289
f 289 294 290
f 294 295 290
f 290 295 291
f 296 293 292
f 292 293 289
f 295 296 291
f 291 296 292
f 299 300 297
f 297 298 299
f 301 304 303
f 303 302 301
f 301 302 297
f 297 302 298
f 302 303 298
f 298 303 299
f 304 301 300
f 300 301 297
f 303 304 299
f 299 304 300
f 307 308 305
f 305 306 307
f 309 312 311
f 311 310 309
f 309 310 305
f 305 310 306
f 310 311 306
f 306 311 307
f 312 309 308
f 308 309 305
f 311 312 307
f 307 312 308
f 315 316 313
f 313 314 315
f 317 320 319
f 319 318 317
f 317 318 313
f 313 318 314
f 318 319 314
f 314 319 315
f 320 317 316
f 316 317 313
f 319 320 315
f 315 320 316
f 323 324 321
f 321 322 323
f 325 328 327
f 327 326 325
f 325 326 321
f 321 326 322
f 326 327 322
f 322 327 323
f 328 325 324
f 324 325 321
f 327 328 323
f 323 328 324
f 331 332 329
f 329 330 331
f 333 336 335
f 335 334 333
f 333 334 329
f 329 334 330
f 334 335 330
f 330 335 331
f 336 333 332
f 332 333 329
f 335 336 331
f 331 336 332
f 339 340 337
f 337 338 339
f 341 344 343
f 343 342 341
f 341 342 337
f 337 342 338
f 342 343 338
f 338 343 339
f 344 341 340
f 340 341 337
f 343 344 339
f 339 344 340
f 347 348 345
f 345 346 347
f 349 352 351
f 351 350 349
f 349 350 345
f 345 350 346
f 350 351 346
f 346 351 347
f 352 349 348
f 348 349 345
f 351 352 347
f 347 352 348
f 355 356 353
f 353 354 355
f 357 360 359
f 359 358 357
f 357 358 353
f 353 358 354
f 358 359 354
f 354 359 355
f 360 357 356
f 356 357 353
f 359 360 355
f 355 360 356

