# https://github.com/mikedh/trimesh
v 155.00000000 149.00000000 -4.00000000
v 155.00000000 151.00000000 -4.00000000
v 75.00000000 151.00000000 -4.00000000
v 75.00000000 149.00000000 -4.00000000
v 155.00000000 149.00000000 -3.00000000
v 155.00000000 151.00000000 -3.00000000
v 75.00000000 151.00000000 -3.00000000
v 75.00000000 149.00000000 -3.00000000
v 535.00000000 148.75000000 -6.00000000
v 535.00000000 151.25000000 -6.00000000
v 455.00000000 151.25000000 -6.00000000
v 455.00000000 148.75000000 -6.00000000
v 535.00000000 148.75000000 -5.00000000
v 535.00000000 151.25000000 -5.00000000
v 455.00000000 151.25000000 -5.00000000
v 455.00000000 148.75000000 -5.00000000
f 2 1 4
f 4 3 2
f 8 5 6
f 6 7 8
f 6 5 2
f 2 5 1
f 7 6 3
f 3 6 2
f 5 8 1
f 1 8 4
f 8 7 4
f 4 7 3
f 10 9 12
f 12 11 10
f 16 13 14
f 14 15 16
f 14 13 10
f 10 13 9
f 15 14 11
f 11 14 10
f 13 16 9
f 9 16 12
f 16 15 12
f 12 15 11

